<?xml version="1.0" standalone="no"?>
<!DOCTYPE svg PUBLIC "-//W3C//DTD SVG 20010904//EN"
 "http://www.w3.org/TR/2001/REC-SVG-20010904/DTD/svg10.dtd">
<svg version="1.0" xmlns="http://www.w3.org/2000/svg"
 width="723.000000pt" height="702.000000pt" viewBox="0 0 723.000000 702.000000"
 preserveAspectRatio="xMidYMid meet">

<g transform="translate(0.000000,702.000000) scale(0.100000,-0.100000)"
fill="#000000" stroke="none">
<path d="M3540 6910 c-25 -4 -67 -17 -95 -27 -27 -11 -603 -284 -1280 -608
-761 -363 -1249 -602 -1281 -626 -53 -41 -97 -96 -133 -166 -20 -41 -621
-2624 -641 -2758 -13 -87 3 -176 48 -263 27 -53 266 -357 892 -1135 470 -584
872 -1079 894 -1099 23 -21 67 -51 98 -68 115 -62 62 -60 1558 -60 842 0 1392
4 1435 10 84 12 192 63 250 117 53 50 1742 2150 1778 2211 15 26 35 71 43 101
35 119 40 97 -291 1531 -169 734 -316 1358 -327 1387 -25 68 -87 150 -146 195
-46 35 -2449 1190 -2567 1234 -70 25 -171 36 -235 24z m148 -900 c72 -44 91
-117 67 -271 -9 -57 -19 -156 -22 -219 -6 -114 -5 -116 21 -147 15 -18 26 -43
26 -61 0 -29 1 -29 68 -36 169 -17 396 -84 572 -167 180 -86 323 -182 485
-326 l90 -81 27 19 c14 11 43 19 64 19 49 0 105 43 256 199 122 127 158 151
228 151 150 0 191 -179 65 -282 -16 -14 -61 -43 -100 -65 -205 -116 -284 -183
-285 -240 0 -12 -12 -30 -26 -40 l-26 -19 43 -70 c122 -198 206 -428 255 -694
19 -100 26 -467 11 -522 -6 -22 -3 -28 15 -33 13 -4 39 -22 58 -41 44 -42 110
-58 315 -78 167 -16 221 -32 264 -81 42 -48 48 -96 19 -153 -49 -98 -142 -106
-338 -30 -159 63 -272 91 -308 76 -15 -6 -44 -14 -66 -17 -38 -6 -39 -7 -75
-101 -138 -355 -392 -676 -704 -888 -73 -49 -96 -70 -91 -82 4 -8 7 -44 8 -80
1 -72 27 -127 133 -282 88 -130 106 -172 101 -240 -3 -44 -10 -64 -29 -84 -53
-57 -106 -67 -173 -34 -57 27 -87 79 -140 241 -60 183 -101 266 -140 286 -17
8 -40 27 -51 40 l-21 25 -96 -30 c-364 -117 -769 -116 -1141 2 l-105 33 -11
-23 c-5 -13 -25 -31 -43 -40 -56 -29 -73 -62 -151 -293 -30 -89 -67 -177 -80
-195 -92 -120 -268 -65 -267 84 0 56 21 102 98 217 34 50 80 125 102 166 36
67 41 83 39 134 -1 32 2 67 5 79 6 17 -2 26 -55 59 -203 125 -431 356 -574
580 -52 83 -137 254 -171 348 -28 76 -30 78 -59 74 -16 -3 -43 2 -59 10 -20
11 -44 13 -76 9 -46 -6 -194 -53 -299 -95 -30 -12 -75 -26 -101 -32 -131 -28
-238 74 -196 186 33 84 90 111 266 126 63 5 155 16 204 24 81 14 94 20 132 55
24 22 53 40 64 40 19 0 20 4 13 53 -16 106 -7 414 15 537 41 225 114 429 219
613 35 61 63 114 63 117 0 4 -9 15 -19 24 -10 10 -22 32 -25 50 -3 18 -21 46
-39 63 -37 35 -154 114 -242 163 -131 73 -175 125 -175 206 0 111 100 174 207
129 20 -9 101 -79 187 -163 155 -153 201 -187 242 -179 13 2 35 -4 50 -14 l28
-18 89 85 c49 47 137 119 195 160 116 83 336 196 473 243 107 37 291 78 387
87 72 7 72 7 72 36 0 18 11 43 26 61 26 31 27 33 21 147 -3 63 -13 162 -22
220 -9 58 -14 123 -10 145 12 85 75 145 150 145 22 0 54 -9 73 -20z"/>
<path d="M3305 4865 c-258 -54 -492 -170 -691 -342 -51 -45 -53 -48 -37 -64
23 -21 590 -422 620 -437 30 -17 88 -15 123 3 56 29 60 49 80 409 11 182 21
359 23 394 3 34 2 62 -2 61 -3 0 -55 -11 -116 -24z"/>
<path d="M3807 4827 c2 -34 12 -211 23 -393 20 -360 24 -380 80 -409 38 -20
83 -19 123 1 26 14 592 410 621 435 13 12 -15 41 -117 120 -200 155 -435 256
-703 303 l-32 5 5 -62z"/>
<path d="M2312 4158 c-25 -32 -96 -190 -127 -281 -42 -128 -62 -225 -75 -366
-9 -108 -4 -271 9 -271 15 0 734 211 751 220 60 32 81 130 39 184 -20 26 -574
526 -582 526 -3 0 -9 -6 -15 -12z"/>
<path d="M4612 3916 c-156 -140 -291 -264 -299 -276 -22 -31 -22 -100 0 -133
9 -14 31 -34 48 -43 17 -8 187 -60 378 -115 190 -55 353 -102 362 -105 36 -10
32 255 -7 446 -24 116 -79 272 -135 381 -28 54 -54 99 -57 99 -4 0 -135 -115
-290 -254z"/>
<path d="M3429 3539 l-72 -91 24 -111 25 -112 104 -51 105 -51 99 48 c55 26
103 54 107 61 4 7 17 58 29 114 l23 101 -74 92 -73 91 -112 0 -112 0 -73 -91z"/>
<path d="M2581 2935 c-205 -35 -376 -66 -378 -69 -8 -7 63 -161 112 -244 68
-115 139 -206 232 -299 74 -74 241 -209 249 -201 2 2 68 162 148 355 158 382
167 414 124 468 -21 27 -74 56 -100 54 -7 0 -181 -29 -387 -64z"/>
<path d="M4199 2985 c-38 -21 -62 -64 -62 -110 1 -28 45 -146 148 -395 81
-195 149 -357 151 -359 2 -2 34 18 71 44 98 69 288 265 356 367 69 104 158
277 160 315 l2 26 -370 63 c-203 35 -383 63 -400 63 -16 0 -42 -6 -56 -14z"/>
<path d="M3565 2677 c-17 -8 -35 -20 -41 -28 -22 -27 -386 -690 -381 -695 9
-9 196 -53 271 -63 177 -25 422 -9 602 40 l81 21 -119 217 c-66 119 -152 274
-192 345 -40 72 -83 137 -98 148 -36 25 -86 31 -123 15z"/>
</g>
</svg>
